<svg width="50" height="50" viewBox="0 0 50 50" fill="none" xmlns="http://www.w3.org/2000/svg">
<g clip-path="url(#clip0_126_10)">
<path d="M25 50C38.8071 50 50 38.8071 50 25C50 11.1929 38.8071 0 25 0C11.1929 0 0 11.1929 0 25C0 38.8071 11.1929 50 25 50Z" fill="#1769FF"/>
<path d="M17.662 13.672C18.74 13.672 19.724 13.768 20.614 13.958C21.504 14.148 22.264 14.46 22.898 14.894C23.532 15.328 24.024 15.904 24.374 16.624C24.724 17.344 24.898 18.232 24.898 19.29C24.898 20.432 24.638 21.384 24.12 22.146C23.602 22.908 22.834 23.532 21.82 24.018C23.216 24.42 24.258 25.124 24.946 26.128C25.634 27.132 25.978 28.344 25.978 29.762C25.978 30.904 25.756 31.894 25.312 32.73C24.868 33.566 24.27 34.248 23.518 34.776C22.766 35.306 21.91 35.696 20.948 35.95C19.98 36.204 18.982 36.332 17.982 36.33H7V13.672H17.662ZM17.028 22.842C17.916 22.842 18.646 22.63 19.218 22.208C19.79 21.784 20.076 21.098 20.074 20.146C20.074 19.618 19.978 19.184 19.788 18.846C19.598 18.508 19.344 18.242 19.026 18.052C18.708 17.862 18.344 17.73 17.932 17.656C17.508 17.582 17.078 17.544 16.646 17.546H11.984V22.846L17.028 22.842ZM17.314 32.456C17.784 32.458 18.252 32.41 18.71 32.314C19.154 32.218 19.546 32.06 19.884 31.838C20.222 31.616 20.492 31.314 20.694 30.934C20.894 30.554 20.996 30.066 20.996 29.474C20.996 28.312 20.668 27.48 20.012 26.984C19.356 26.486 18.488 26.238 17.41 26.238H11.984V32.458L17.314 32.456ZM32.246 31.98C32.922 32.636 33.896 32.964 35.166 32.964C36.076 32.964 36.858 32.736 37.514 32.282C38.17 31.828 38.572 31.346 38.72 30.838H42.686C42.052 32.806 41.078 34.212 39.766 35.058C38.454 35.904 36.868 36.328 35.006 36.328C33.716 36.328 32.552 36.122 31.516 35.71C30.48 35.298 29.602 34.71 28.882 33.948C28.162 33.186 27.606 32.278 27.216 31.22C26.826 30.162 26.63 28.998 26.63 27.73C26.63 26.504 26.83 25.362 27.232 24.304C27.634 23.246 28.206 22.332 28.946 21.56C29.686 20.788 30.57 20.18 31.596 19.736C32.622 19.292 33.76 19.07 35.008 19.07C36.404 19.07 37.62 19.34 38.658 19.88C39.694 20.42 40.546 21.144 41.212 22.054C41.878 22.964 42.36 24 42.656 25.164C42.952 26.328 43.058 27.544 42.974 28.814H31.138C31.2 30.268 31.57 31.326 32.246 31.98ZM37.34 23.35C36.8 22.758 35.98 22.462 34.88 22.462C34.16 22.462 33.562 22.584 33.088 22.826C32.612 23.07 32.232 23.37 31.946 23.73C31.66 24.09 31.46 24.47 31.344 24.872C31.228 25.274 31.158 25.634 31.138 25.95H38.468C38.254 24.81 37.878 23.942 37.34 23.35ZM30.366 14.822H39.524V17.362H30.366V14.822Z" fill="white"/>
</g>
<defs>
<clipPath id="clip0_126_10">
<rect width="50" height="50" fill="white"/>
</clipPath>
</defs>
</svg>
