<svg width="50" height="50" viewBox="0 0 50 50" fill="none" xmlns="http://www.w3.org/2000/svg">
<g clip-path="url(#clip0_126_13)">
<path d="M0 3.66731C0 1.69827 1.65508 0.0999985 3.69531 0.0999985H46.3047C48.3457 0.0999985 50 1.69827 50 3.66731V46.3333C50 48.3029 48.3457 49.9 46.3047 49.9H3.69531C1.65527 49.9 0 48.3031 0 46.3339V3.66673V3.66731Z" fill="#006699"/>
<path d="M15.1945 41.776V19.3559H7.7125V41.776H15.1953H15.1945ZM11.4551 16.2953C14.0637 16.2953 15.6877 14.5737 15.6877 12.4222C15.6389 10.2217 14.0637 8.5481 11.5047 8.5481C8.94395 8.5481 7.27148 10.2217 7.27148 12.422C7.27148 14.5735 8.89492 16.2951 11.4061 16.2951H11.4545L11.4551 16.2953ZM19.3359 41.776H26.8174V29.2569C26.8174 28.5877 26.8662 27.9168 27.0639 27.4388C27.6045 26.0995 28.8355 24.7131 30.9029 24.7131C33.6096 24.7131 34.693 26.7689 34.693 29.7831V41.776H42.1742V28.921C42.1742 22.0348 38.4836 18.8302 33.5611 18.8302C29.5254 18.8302 27.7529 21.0769 26.7682 22.6071H26.818V19.3566H19.3363C19.434 21.4599 19.3357 41.7768 19.3357 41.7768L19.3359 41.776Z" fill="white"/>
</g>
<defs>
<clipPath id="clip0_126_13">
<rect width="50" height="50" fill="white"/>
</clipPath>
</defs>
</svg>
