<svg width="171" height="210" viewBox="0 0 171 210" fill="none" xmlns="http://www.w3.org/2000/svg">
<path d="M58.845 9.34C46.575 9.42 37.455 11.91 32.395 16.99C27.255 22.12 24.695 31.11 24.695 43.63V73.08C24.695 83.35 20.525 92.01 12.175 98.76C16.335 103.24 18.905 106.45 20.195 109.36C23.085 114.81 24.695 119.94 24.695 124.42V199.11H33.985V124.42C33.985 120.27 33.465 115.77 31.215 110.94C28.965 106.13 27.925 102.28 24.705 99.08L24.395 98.75L24.705 98.42C32.415 92 33.985 83.34 33.985 73.07V43.62C33.985 34.62 35.925 28.21 40.085 24.35C43.595 20.86 49.955 18.96 58.835 18.93V9.34H58.845Z" fill="white"/>
<path d="M70.075 65.11C70.075 69.65 66.395 73.32 61.865 73.32C57.335 73.32 53.655 69.64 53.655 65.11C53.655 60.58 57.335 56.9 61.865 56.9C66.395 56.9 70.075 60.58 70.075 65.11Z" fill="white"/>
<path d="M152.705 65.11C152.705 69.65 149.025 73.32 144.495 73.32C139.965 73.32 136.285 69.64 136.285 65.11C136.285 60.58 139.965 56.9 144.495 56.9C149.025 56.9 152.705 60.58 152.705 65.11Z" fill="white"/>
<path d="M127.535 9.34H118.225L91.275 199.12H100.595L127.535 9.34Z" fill="white"/>
<path d="M160.245 147.01H150.935L142.115 199.12H151.435L160.245 147.01Z" fill="white"/>
<path d="M58.845 9.34V18.93L91.125 18.93V9.34L58.845 9.34Z" fill="white"/>
<path d="M96.285 189.8V199.11H151.335V189.8H96.285Z" fill="white"/>
</svg>
