<svg width="171" height="210" viewBox="0 0 171 210" fill="none" xmlns="http://www.w3.org/2000/svg">
<path d="M70.075 65.11C70.075 69.65 66.395 73.32 61.865 73.32C57.335 73.32 53.655 69.64 53.655 65.11C53.655 60.58 57.335 56.9 61.865 56.9C66.395 56.9 70.075 60.58 70.075 65.11Z" fill="white"/>
<path d="M152.705 65.11C152.705 69.65 149.025 73.32 144.495 73.32C139.965 73.32 136.285 69.64 136.285 65.11C136.285 60.58 139.965 56.9 144.495 56.9C149.025 56.9 152.705 60.58 152.705 65.11Z" fill="white"/>
<path d="M91.1248 9.33984V18.9297H58.8348L58.0096 18.9385C49.5602 19.0805 43.4851 20.9688 40.0848 24.3496C35.9248 28.2096 33.9852 34.6201 33.9852 43.6201V73.0703C33.9852 83.3402 32.4148 92 24.7049 98.4199L24.3954 98.75L24.7049 99.0801C27.9249 102.28 28.9647 106.13 31.2147 110.94C33.4646 115.77 33.9852 120.27 33.9852 124.42V199.11H24.6952V124.42C24.6951 119.94 23.085 114.81 20.1952 109.36C18.9052 106.45 16.3347 103.24 12.1747 98.7598C20.5246 92.0098 24.6951 83.35 24.6952 73.0801V43.6299C24.6952 31.1099 27.2554 22.1202 32.3954 16.9902C37.4525 11.9132 46.5647 9.42254 58.8241 9.33984H91.1248Z" fill="white"/>
<path d="M101.918 189.8H143.692L150.935 147.01H160.245L151.435 199.12H142.115L142.117 199.11H100.596L100.595 199.12H91.2752L118.225 9.33984H127.535L101.918 189.8Z" fill="white"/>
</svg>
